<svg width="34" height="35" fill="none" xmlns="http://www.w3.org/2000/svg"><path d="M9.91 19.286H7.233a.806.806 0 01-.803-.804v-2.678c0-.442.361-.804.803-.804h2.679c.442 0 .803.362.803.804v2.678a.806.806 0 01-.803.804zm7.233-.804v-2.678a.806.806 0 00-.804-.804h-2.678a.806.806 0 00-.804.804v2.678c0 .442.362.804.804.804h2.678a.806.806 0 00.804-.804zm6.428 0v-2.678a.806.806 0 00-.803-.804h-2.679a.806.806 0 00-.803.804v2.678c0 .442.361.804.803.804h2.679a.806.806 0 00.803-.804zm-6.428 6.429v-2.679a.806.806 0 00-.804-.803h-2.678a.806.806 0 00-.804.803v2.679c0 .442.362.803.804.803h2.678a.806.806 0 00.804-.803zm-6.429 0v-2.679a.806.806 0 00-.803-.803H7.232a.806.806 0 00-.803.803v2.679c0 .442.361.803.803.803h2.679a.806.806 0 00.803-.803zm12.857 0v-2.679a.806.806 0 00-.803-.803h-2.679a.806.806 0 00-.803.803v2.679c0 .442.361.803.803.803h2.679a.806.806 0 00.803-.803zM30 7.5v23.571a3.215 3.215 0 01-3.214 3.215H3.214A3.215 3.215 0 010 31.07V7.5a3.215 3.215 0 013.214-3.214H6.43V.804c0-.442.361-.804.803-.804h2.679c.442 0 .803.362.803.804v3.482h8.572V.804c0-.442.361-.804.803-.804h2.679c.442 0 .803.362.803.804v3.482h3.215A3.215 3.215 0 0130 7.5zm-3.214 23.17V10.714H3.214V30.67c0 .22.181.401.402.401h22.768c.22 0 .402-.18.402-.401zM32 19h2v14h-2V19z"/></svg>