<svg width="36" height="36" fill="none" xmlns="http://www.w3.org/2000/svg"><g clip-path="url(#clip0)"><path d="M21 20.357c-1.922 0-2.846 1.072-6 1.072s-4.071-1.072-6-1.072c-4.969 0-9 4.031-9 9v1.714a3.215 3.215 0 003.214 3.215h23.572A3.215 3.215 0 0030 31.07v-1.714c0-4.969-4.031-9-9-9zm5.786 10.714H3.214v-1.714A5.796 5.796 0 019 23.571c.978 0 2.565 1.072 6 1.072 3.462 0 5.016-1.072 6-1.072a5.796 5.796 0 015.786 5.786v1.714zM15 19.286c5.324 0 9.643-4.32 9.643-9.643C24.643 4.319 20.323 0 15 0 9.676 0 5.357 4.32 5.357 9.643s4.32 9.643 9.643 9.643zm0-16.072a6.439 6.439 0 016.429 6.429A6.439 6.439 0 0115 16.07a6.439 6.439 0 01-6.429-6.428A6.439 6.439 0 0115 3.214z"/></g><path d="M33.77 34h-1.94V19.67h1.94V34z"/><defs><clipPath id="clip0"><path d="M0 0h30v34.286H0z"/></clipPath></defs></svg>